<svg focusable="false" sectionKey="homescreen"><svg xmlns="http://www.w3.org/2000/svg" viewBox="0 0 284 32" id="logo"><path fill-rule="evenodd" clip-rule="evenodd" d="M169.514 25.732c2.792 1.658 5.654 2.563 8.916 2.582 2.152.013 6.267-.852 6.322-3.612.063-3.158-3.945-4.195-6.485-4.441-4.394-.426-9.347-2.023-9.139-7.265.19-4.775 5.239-6.533 9.295-6.533 3.197 0 5.461.686 8.341 1.976l-1.479 3.315c-2.429-1.088-4.163-1.648-6.862-1.648-1.836 0-5.57.584-5.667 3.032-.113 2.871 3.651 3.26 5.824 3.51 4.673.536 9.912 2.599 9.8 8.125-.102 5.052-5.603 7.195-9.964 7.169-3.935-.024-7.38-1.079-10.752-3.08l1.85-3.13zM124.6 19.219c0-4.889 3.405-9.005 8.45-9.005 2.684 0 4.924 1.183 6.427 3.028l2.8-2.61c-2.22-2.471-5.456-3.985-9.227-3.985-7.189 0-12.364 5.448-12.364 12.572 0 7.166 5.134 12.571 12.364 12.571 3.794 0 7.03-1.504 9.243-3.971l-2.8-2.61c-1.497 1.842-3.735 3.015-6.443 3.015-5.088 0-8.45-4.078-8.45-9.005zm-50.54-8.624h7.846c2.77 0 4.398 1.6 4.398 3.816 0 2.32-1.63 3.602-4.398 3.602H74.06v-7.418zm0 16.554v-5.777h6.53l6.174 9.968h4.606l-6.486-10.384c3.325-.796 5.265-3.359 5.265-6.683 0-4.822-3.477-7.176-8.001-7.176H70.25v15.781l3.81 4.271zm43.627-7.93c0-7.11-5.235-12.572-12.398-12.572-7.189 0-12.364 5.448-12.364 12.572 0 7.166 5.133 12.571 12.364 12.571 7.205 0 12.398-5.42 12.398-12.571zm-20.849 0c0-4.889 3.405-9.005 8.451-9.005 5.018 0 8.485 4.134 8.485 9.005 0 4.909-3.424 9.005-8.485 9.005-5.089 0-8.451-4.078-8.451-9.005zm53.637 12.121V19.703l11.428 11.637h5.196l-13.023-13.16 11.222-11.083h-4.884l-9.939 9.905V7.097h-3.81V31.34h3.81zm39.218-20.745h8V31.34h3.809V10.595h8.035V7.097h-19.844v3.498zm45.598 8.624c0-7.108-5.237-12.572-12.398-12.572-7.188 0-12.364 5.45-12.364 12.572 0 7.164 5.136 12.571 12.364 12.571 7.201 0 12.398-5.423 12.398-12.571zm-20.848 0c0-4.887 3.405-9.005 8.45-9.005 5.015 0 8.484 4.136 8.484 9.005 0 4.908-3.425 9.005-8.484 9.005-5.086 0-8.45-4.081-8.45-9.005zm28.616 12.121V13.712l13.783 17.628h3.221V7.097h-3.74v17.559l-13.68-17.559h-3.324V31.34h3.74zm40.161 0v-3.498h-13.888v-7.689h10.945v-3.498h-10.945v-6.06h13.438V7.097h-17.247V31.34h17.697zM0 31.34l15.96-15.656 6.361 1.97 9.925-11.36L42.829 0l12.874 18.694 4.531-3.079L74.259 31.34h-4.561L59.404 20.109l-12.199 5.485-.388-.861 6.187-4.205-5.912-8.701-4.262 3.977-3.427-.831-2.584-2.903-9.962 4.54-6.428 6.567-.728-.138.258-2.985-3.241-.841L.924 31.34H0zm13.857-.126l17.937-4.996 2.708.424 6.28 4.698h5.458l-12.242-9.493-22.029 9.493 1.888-.126z"></path></svg></svg>